<?xml version="1.0" standalone="no"?>
<!DOCTYPE svg PUBLIC "-//W3C//DTD SVG 20010904//EN"
 "http://www.w3.org/TR/2001/REC-SVG-20010904/DTD/svg10.dtd">
<svg version="1.0" xmlns="http://www.w3.org/2000/svg"
 width="250.000000pt" height="90.000000pt" viewBox="0 0 250.000000 90.000000"
 preserveAspectRatio="xMidYMid meet">

<g transform="translate(0.000000,90.000000) scale(0.100000,-0.100000)"
fill="#000000" stroke="none">
<path d="M1234 848 c-94 -101 -128 -148 -116 -160 16 -16 15 -25 -3 -32 -10
-3 -37 14 -75 49 -57 52 -61 55 -107 51 -43 -3 -94 -17 -220 -62 l-43 -16 0
-60 c0 -56 1 -59 21 -53 15 5 20 3 17 -6 -3 -8 -22 -16 -44 -20 -21 -3 -49
-11 -62 -17 -21 -12 -22 -11 -22 25 0 128 -133 203 -308 173 -78 -13 -189 -62
-240 -106 l-32 -29 52 -87 c46 -75 56 -86 75 -81 18 4 25 -1 33 -23 11 -27 35
-83 116 -264 18 -41 38 -76 43 -78 17 -6 168 47 181 63 8 10 8 24 0 55 -11 41
-6 66 8 44 14 -21 72 -44 112 -44 41 0 98 22 112 44 5 7 8 3 8 -9 1 -41 12
-45 80 -35 107 17 120 25 120 76 0 24 4 44 10 44 5 0 65 -28 133 -61 96 -48
130 -61 150 -55 26 6 27 9 27 70 l0 63 51 26 52 25 -6 -66 c-3 -37 -9 -77 -12
-88 -9 -29 10 -35 121 -41 105 -6 187 12 223 51 l23 24 35 -39 c24 -27 51 -44
86 -54 60 -18 160 -20 190 -4 16 9 22 9 25 0 8 -23 28 -8 66 50 21 33 43 62
49 66 6 3 66 -53 135 -125 68 -73 130 -132 138 -132 13 0 18 14 49 146 l17 71
-55 52 c-30 29 -76 68 -101 88 -25 20 -46 38 -46 42 0 3 30 22 66 41 36 19 68
38 70 42 6 9 -106 199 -122 205 -17 6 -49 -12 -98 -57 l-41 -38 -40 63 -39 63
-86 -30 c-114 -41 -122 -49 -114 -110 l7 -48 -41 0 c-39 0 -40 1 -47 41 -10
59 -71 122 -143 150 -62 23 -214 37 -276 25 -31 -6 -36 -11 -36 -35 0 -28 0
-28 -40 -18 -22 6 -40 14 -40 18 0 3 18 14 40 24 65 29 68 38 27 103 -19 31
-42 58 -49 60 -8 1 -37 -21 -64 -50z m93 -62 c-3 -11 -94 -65 -109 -66 -18 0
-6 24 34 72 l43 50 18 -23 c10 -12 16 -27 14 -33z m298 -101 c74 -21 114 -50
135 -98 26 -57 25 -70 -10 -95 -46 -34 -73 -96 -68 -153 4 -40 1 -52 -17 -69
-37 -34 -129 -51 -192 -34 -29 8 -29 29 -4 184 19 115 19 115 -1 131 -18 14
-20 23 -14 65 15 100 12 96 70 89 28 -3 74 -13 101 -20z m-745 -45 c0 -33 4
-60 9 -60 4 0 27 27 51 61 l42 61 44 -43 c50 -49 49 -51 -25 -124 -28 -27 -51
-52 -51 -56 0 -3 25 -16 54 -27 31 -12 72 -38 94 -60 24 -24 55 -43 78 -49 36
-8 39 -12 42 -46 2 -28 0 -37 -13 -37 -8 0 -78 32 -155 70 -77 39 -142 70
-145 70 -3 0 -5 -36 -5 -80 0 -44 -4 -80 -9 -80 -5 0 -23 -3 -41 -6 l-32 -7 6
49 c19 158 19 161 -3 198 -13 21 -24 59 -28 100 -5 60 -8 66 -25 60 -15 -5
-19 -2 -16 12 2 12 22 24 58 36 30 9 58 17 63 17 4 1 7 -26 7 -59z m-420 21
c42 -21 80 -74 80 -110 0 -44 -45 -125 -90 -164 l-42 -36 21 -83 c12 -46 24
-91 27 -100 4 -13 -5 -20 -36 -29 -22 -7 -42 -10 -44 -8 -3 2 -43 90 -90 194
-47 105 -89 189 -93 188 -4 -1 -15 -4 -23 -7 -10 -4 -24 8 -43 39 -15 25 -27
50 -27 55 0 16 98 61 164 76 72 16 147 10 196 -15z m1659 -66 c24 -42 48 -78
53 -81 6 -4 31 14 56 38 82 77 76 76 116 16 20 -29 36 -56 36 -60 0 -3 -34
-28 -75 -54 -59 -37 -73 -50 -63 -59 7 -6 57 -51 111 -100 l99 -89 -6 -40 c-4
-21 -9 -43 -13 -49 -3 -5 -61 46 -128 113 l-122 122 -52 -59 -52 -58 -24 30
-25 30 31 13 c23 10 29 17 25 32 -3 11 -8 29 -11 39 -4 13 2 25 16 34 12 9 20
20 18 25 -2 5 -29 43 -59 85 -40 55 -60 76 -75 74 -11 -1 -21 5 -23 14 -2 11
13 22 50 36 29 12 58 21 64 22 6 0 30 -33 53 -74z m-781 45 c17 -11 32 -24 32
-30 0 -6 -26 -38 -57 -72 -47 -52 -54 -63 -39 -66 10 -2 30 5 45 16 l27 19 32
-27 32 -26 -23 -22 c-57 -53 -174 -69 -235 -32 -64 39 -80 144 -30 197 57 62
153 81 216 43z m622 -120 c0 -5 -4 -10 -9 -10 -6 0 -13 5 -16 10 -3 6 1 10 9
10 9 0 16 -4 16 -10z m-910 -20 c0 -11 -7 -20 -15 -20 -17 0 -18 2 -9 24 9 23
24 20 24 -4z m-301 -5 c61 -31 73 -110 28 -184 -45 -74 -149 -96 -208 -43
-110 99 46 297 180 227z m1228 -51 c20 -17 43 -45 50 -62 l13 -31 -73 -21
c-39 -12 -80 -24 -91 -27 -28 -8 1 -23 46 -23 41 0 43 -2 53 -47 6 -29 4 -33
-20 -39 -15 -4 -51 -1 -79 5 -148 33 -198 151 -105 244 39 39 40 39 104 35 53
-3 71 -9 102 -34z"/>
<path d="M1545 468 c-7 -22 -24 -162 -20 -167 10 -9 97 33 111 54 21 32 14 74
-16 96 -36 25 -69 33 -75 17z m45 -82 c0 -14 -4 -28 -10 -31 -6 -4 -10 7 -10
24 0 17 5 31 10 31 6 0 10 -11 10 -24z"/>
<path d="M368 563 c-22 -6 -22 -11 -2 -81 22 -78 29 -82 66 -45 66 66 23 149
-64 126z m50 -82 c4 -28 -13 -20 -21 9 -3 14 -1 20 6 17 7 -2 14 -14 15 -26z"/>
<path d="M1181 574 c-26 -33 -27 -55 -3 -84 l18 -22 47 52 c26 29 46 58 44 64
-2 6 -22 12 -44 14 -34 3 -44 -1 -62 -24z m59 -9 c0 -12 -33 -55 -41 -55 -16
0 -9 39 9 49 19 12 32 14 32 6z"/>
<path d="M632 457 c-12 -13 -22 -31 -22 -41 0 -25 46 -66 75 -66 33 0 65 33
65 68 -1 24 -2 25 -14 10 -17 -23 -65 -23 -73 -2 -3 9 -1 25 6 35 17 28 -10
25 -37 -4z"/>
<path d="M1833 415 c-24 -16 -39 -63 -25 -77 10 -10 120 17 137 34 14 13 -39
58 -68 58 -13 0 -32 -7 -44 -15z m54 -31 c4 -12 -35 -26 -49 -18 -13 8 13 35
30 32 9 -2 17 -8 19 -14z"/>
</g>
</svg>
