<?xml version="1.0" standalone="no"?>
<!DOCTYPE svg PUBLIC "-//W3C//DTD SVG 20010904//EN"
 "http://www.w3.org/TR/2001/REC-SVG-20010904/DTD/svg10.dtd">
<svg version="1.0" xmlns="http://www.w3.org/2000/svg"
 width="249.000000pt" height="256.000000pt" viewBox="0 0 249.000000 256.000000"
 preserveAspectRatio="xMidYMid meet">

<g transform="translate(0.000000,256.000000) scale(0.100000,-0.100000)"
fill="#000000" stroke="none">
<path d="M1120 2310 c-129 -21 -304 -89 -421 -165 -92 -59 -245 -208 -302
-293 -83 -125 -144 -265 -173 -402 -24 -112 -62 -100 329 -99 l342 0 28 60
c96 201 349 289 555 192 73 -34 161 -122 195 -195 l28 -58 338 0 c186 0 340 2
343 6 10 10 -33 188 -66 270 -115 289 -346 518 -631 625 -129 48 -195 60 -355
64 -85 2 -180 0 -210 -5z"/>
<path d="M1230 1471 c-85 -28 -151 -93 -174 -172 -20 -66 -20 -82 0 -148 18
-61 70 -123 128 -154 55 -29 164 -30 221 -2 184 90 193 352 15 449 -55 30
-143 43 -190 27z"/>
<path d="M206 1123 c19 -164 54 -280 129 -420 145 -273 390 -463 700 -545 101
-26 310 -35 426 -18 360 52 673 289 831 628 43 91 84 237 94 337 l7 65 -338
-2 -337 -3 -17 -55 c-67 -216 -275 -341 -490 -296 -159 34 -282 152 -322 310
l-11 46 -339 0 -339 0 6 -47z m614 -45 c0 -30 61 -137 106 -187 190 -211 502
-223 710 -29 49 46 74 81 106 144 l41 84 259 0 258 0 0 -22 c0 -37 -46 -198
-75 -263 -117 -263 -361 -473 -651 -562 -82 -24 -103 -27 -269 -27 -156 -1
-191 2 -264 22 -98 26 -241 92 -326 151 -190 130 -346 357 -406 588 -32 125
-59 113 246 113 205 0 265 -3 265 -12z"/>
</g>
</svg>
