<?xml version="1.0" standalone="no"?>
<!DOCTYPE svg PUBLIC "-//W3C//DTD SVG 20010904//EN"
 "http://www.w3.org/TR/2001/REC-SVG-20010904/DTD/svg10.dtd">
<svg version="1.0" xmlns="http://www.w3.org/2000/svg"
 width="500.000000pt" height="500.000000pt" viewBox="0 0 500.000000 500.000000"
 preserveAspectRatio="xMidYMid meet">

<g transform="translate(0.000000,500.000000) scale(0.100000,-0.100000)"
fill="#000000" stroke="none">
<path d="M0 2500 l0 -2499 2500 0 2500 0 0 2499 0 2499 -2500 0 -2500 0 0
-2499z m2263 2483 c-13 -2 -35 -2 -50 0 -16 2 -5 4 22 4 28 0 40 -2 28 -4z
m530 0 c-13 -2 -35 -2 -50 0 -16 2 -5 4 22 4 28 0 40 -2 28 -4z m-625 -10
c-10 -2 -26 -2 -35 0 -10 3 -2 5 17 5 19 0 27 -2 18 -5z m700 0 c-10 -2 -26
-2 -35 0 -10 3 -2 5 17 5 19 0 27 -2 18 -5z m-765 -10 c-7 -2 -21 -2 -30 0
-10 3 -4 5 12 5 17 0 24 -2 18 -5z m677 -7 c822 -103 1528 -589 1909 -1316
129 -247 224 -539 259 -800 l9 -60 -588 0 -588 0 -11 43 c-26 101 -56 179
-106 277 -121 237 -306 422 -544 544 -192 99 -362 138 -590 138 -228 0 -398
-39 -590 -138 -325 -166 -557 -459 -650 -821 l-11 -43 -618 0 -618 0 9 60 c35
261 130 553 259 800 378 721 1080 1209 1894 1315 137 18 435 18 575 1z m153 7
c-7 -2 -21 -2 -30 0 -10 3 -4 5 12 5 17 0 24 -2 18 -5z m-890 -10 c-7 -2 -19
-2 -25 0 -7 3 -2 5 12 5 14 0 19 -2 13 -5z m940 0 c-7 -2 -19 -2 -25 0 -7 3
-2 5 12 5 14 0 19 -2 13 -5z m-1003 -13 c-14 -4 -34 -8 -45 -8 -16 0 -15 2 5
8 14 4 34 8 45 8 16 0 15 -2 -5 -8z m1080 0 c20 -6 21 -8 5 -8 -11 0 -31 4
-45 8 -20 6 -21 8 -5 8 11 0 31 -4 45 -8z m-1153 -16 c-3 -3 -12 -4 -19 -1 -8
3 -5 6 6 6 11 1 17 -2 13 -5z m1210 0 c-3 -3 -12 -4 -19 -1 -8 3 -5 6 6 6 11
1 17 -2 13 -5z m-1317 -30 c-41 -13 -79 -23 -85 -23 -15 1 128 48 145 48 8 0
-19 -11 -60 -25z m1444 -4 c76 -28 42 -23 -44 5 -41 14 -60 22 -41 19 19 -4
57 -14 85 -24z m-1544 -24 c0 -6 -93 -37 -97 -32 -2 2 15 11 39 19 47 17 58
19 58 13z m1675 -22 c24 -11 25 -13 5 -8 -14 4 -38 13 -55 20 -24 11 -25 13
-5 8 14 -4 39 -13 55 -20z m-1795 -24 c-8 -5 -19 -10 -25 -10 -5 0 -3 5 5 10
8 5 20 10 25 10 6 0 3 -5 -5 -10z m1860 0 c8 -5 11 -10 5 -10 -5 0 -17 5 -25
10 -8 5 -10 10 -5 10 6 0 17 -5 25 -10z m-2015 -69 c-151 -73 -301 -165 -430
-261 -128 -96 -389 -356 -485 -485 -93 -124 -214 -325 -270 -450 -24 -52 -45
-93 -47 -91 -8 7 87 198 155 314 211 355 513 659 867 870 108 64 301 161 320
161 6 0 -44 -26 -110 -58z m2140 15 c445 -208 834 -562 1087 -988 68 -116 163
-307 155 -314 -2 -2 -23 39 -47 91 -56 125 -177 326 -270 450 -96 129 -357
389 -485 485 -129 96 -279 188 -430 261 -66 32 -117 58 -112 58 4 1 50 -19
102 -43z m-1135 -1016 c-288 -23 -576 -156 -780 -360 -140 -140 -263 -351
-317 -542 -15 -54 -29 -96 -31 -94 -6 7 37 156 69 234 130 325 425 601 762
712 108 35 236 59 317 58 l75 -1 -95 -7z m321 -6 c485 -92 860 -436 989 -907
12 -43 20 -80 18 -83 -2 -2 -16 40 -31 94 -54 191 -177 402 -317 542 -204 204
-492 337 -780 360 -89 7 -91 7 -29 9 37 0 104 -6 150 -15z m-2570 -321 c-12
-20 -14 -14 -5 12 4 9 9 14 11 11 3 -2 0 -13 -6 -23z m4649 -8 c0 -5 -5 -3
-10 5 -5 8 -10 20 -10 25 0 6 5 3 10 -5 5 -8 10 -19 10 -25z m-4676 -69 c-9
-26 -18 -45 -20 -43 -2 2 3 25 12 51 9 26 18 45 20 43 2 -2 -3 -25 -12 -51z
m4710 -26 c5 -20 3 -19 -8 5 -7 17 -16 41 -20 55 -5 20 -3 19 8 -5 7 -16 16
-41 20 -55z m-4755 -113 c-13 -42 -25 -75 -27 -72 -2 2 6 38 18 80 13 41 25
74 27 71 2 -2 -6 -38 -18 -79z m4805 -48 c3 -19 -5 0 -19 41 -14 41 -24 80
-24 85 1 16 36 -88 43 -126z m-4837 -61 c-3 -8 -6 -5 -6 6 -1 11 2 17 5 13 3
-3 4 -12 1 -19z m4850 0 c-3 -8 -6 -5 -6 6 -1 11 2 17 5 13 3 -3 4 -12 1 -19z
m-4863 -62 c-3 -21 -8 -35 -11 -32 -2 2 -1 20 3 40 3 21 8 35 11 32 2 -2 1
-20 -3 -40z m4884 -21 c0 -16 -2 -15 -8 5 -4 14 -8 34 -8 45 0 16 2 15 8 -5 4
-14 8 -34 8 -45z m-2493 -15 c-219 -29 -396 -206 -425 -425 -6 -53 -8 -55 -9
-19 -3 98 74 253 162 330 87 75 202 124 287 122 42 0 41 -1 -15 -8z m247 -20
c169 -63 304 -238 314 -405 l3 -60 -9 60 c-32 221 -204 393 -425 425 l-60 9
60 -3 c33 -2 86 -14 117 -26z m-2655 -22 c-3 -7 -5 -2 -5 12 0 14 2 19 5 13 2
-7 2 -19 0 -25z m4910 0 c-3 -7 -5 -2 -5 12 0 14 2 19 5 13 2 -7 2 -19 0 -25z
m-2274 -7 c133 -52 246 -175 288 -312 57 -188 -21 -402 -189 -516 -170 -115
-380 -109 -545 15 -163 125 -229 348 -157 535 49 128 171 244 303 287 83 27
216 23 300 -9z m-2646 -48 c-3 -10 -5 -4 -5 12 0 17 2 24 5 18 2 -7 2 -21 0
-30z m4930 0 c-3 -10 -5 -4 -5 12 0 17 2 24 5 18 2 -7 2 -21 0 -30z m-4940
-70 c-3 -10 -5 -2 -5 17 0 19 2 27 5 18 2 -10 2 -26 0 -35z m4950 0 c-3 -10
-5 -2 -5 17 0 19 2 27 5 18 2 -10 2 -26 0 -35z m-4960 -70 c-3 -10 -5 -2 -5
17 0 19 2 27 5 18 2 -10 2 -26 0 -35z m4970 0 c-3 -10 -5 -2 -5 17 0 19 2 27
5 18 2 -10 2 -26 0 -35z m-2928 -433 c60 -159 221 -285 396 -310 l60 -9 -60 3
c-167 10 -342 145 -405 314 -12 31 -24 84 -26 117 l-3 60 9 -60 c4 -33 18 -85
29 -115z m942 30 c-48 -155 -174 -282 -330 -330 -35 -11 -82 -19 -105 -19 -36
1 -34 3 19 9 219 29 400 211 423 425 6 52 7 55 10 21 2 -21 -6 -68 -17 -106z
m-2984 -157 c-3 -10 -5 -2 -5 17 0 19 2 27 5 18 2 -10 2 -26 0 -35z m1320 -46
c32 -112 119 -286 192 -385 215 -290 545 -474 901 -502 89 -7 91 -7 29 -9 -79
-1 -200 20 -313 56 -343 108 -643 384 -775 715 -31 77 -75 226 -64 214 4 -3
17 -43 30 -89z m2402 21 c-113 -408 -428 -736 -825 -861 -113 -36 -234 -57
-313 -56 -62 2 -60 2 29 9 355 28 686 212 900 501 74 99 152 253 186 367 14
48 28 93 30 100 2 6 5 12 8 12 3 0 -4 -33 -15 -72z m1248 25 c-3 -10 -5 -2 -5
17 0 19 2 27 5 18 2 -10 2 -26 0 -35z m-3680 -66 c29 -105 127 -302 195 -392
119 -156 267 -281 438 -369 192 -99 362 -138 590 -138 228 0 398 39 590 138
171 88 319 213 438 369 68 90 166 287 195 392 l22 83 591 0 591 0 -9 -60 c-70
-515 -328 -1030 -703 -1405 -586 -586 -1438 -843 -2237 -676 -473 99 -913 336
-1253 676 -375 375 -633 890 -703 1405 l-9 60 621 0 621 0 22 -83z m-1280 -4
c-3 -10 -5 -2 -5 17 0 19 2 27 5 18 2 -10 2 -26 0 -35z m4950 0 c-3 -10 -5 -2
-5 17 0 19 2 27 5 18 2 -10 2 -26 0 -35z m-4940 -60 c-3 -10 -5 -4 -5 12 0 17
2 24 5 18 2 -7 2 -21 0 -30z m4930 0 c-3 -10 -5 -4 -5 12 0 17 2 24 5 18 2 -7
2 -21 0 -30z m-4920 -55 c-3 -7 -5 -2 -5 12 0 14 2 19 5 13 2 -7 2 -19 0 -25z
m4910 0 c-3 -7 -5 -2 -5 12 0 14 2 19 5 13 2 -7 2 -19 0 -25z m-4889 -83 c0
-16 -2 -15 -8 5 -4 14 -8 34 -8 45 0 16 2 15 8 -5 4 -14 8 -34 8 -45z m4876
21 c-3 -21 -8 -35 -11 -32 -2 2 -1 20 3 40 3 21 8 35 11 32 2 -2 1 -20 -3 -40z
m-4867 -68 c-3 -8 -6 -5 -6 6 -1 11 2 17 5 13 3 -3 4 -12 1 -19z m4850 0 c-3
-8 -6 -5 -6 6 -1 11 2 17 5 13 3 -3 4 -12 1 -19z m-4798 -173 c-1 -16 -36 88
-43 126 -3 19 5 0 19 -41 14 -41 24 -79 24 -85z m4771 71 c-13 -42 -25 -75
-27 -72 -2 2 6 38 19 80 12 41 24 74 26 71 2 -2 -6 -38 -18 -79z m-4736 -166
c5 -20 3 -19 -8 5 -7 17 -16 41 -20 55 -5 20 -3 19 8 -5 7 -16 16 -41 20 -55z
m4690 26 c-9 -26 -18 -45 -20 -43 -2 2 3 25 12 51 9 26 18 45 20 43 2 -2 -3
-25 -12 -51z m-4664 -91 c0 -5 -5 -3 -10 5 -5 8 -10 20 -10 25 0 6 5 3 10 -5
5 -8 10 -19 10 -25z m4631 8 c-12 -20 -14 -14 -5 12 4 9 9 14 11 11 3 -2 0
-13 -6 -23z m-4450 -363 c35 -58 98 -150 139 -205 96 -128 356 -389 485 -485
124 -93 325 -214 450 -270 52 -24 93 -45 91 -47 -7 -8 -198 87 -314 155 -359
213 -661 515 -874 874 -64 109 -159 298 -157 315 0 5 26 -46 58 -112 32 -66
87 -167 122 -225z m4395 236 c-208 -446 -562 -835 -988 -1088 -116 -68 -307
-163 -314 -155 -2 2 39 23 91 47 125 56 326 177 450 270 129 96 389 356 485
485 93 124 214 325 270 450 24 52 45 93 47 91 2 -2 -16 -47 -41 -100z m-3186
-1256 c8 -5 11 -10 5 -10 -5 0 -17 5 -25 10 -8 5 -10 10 -5 10 6 0 17 -5 25
-10z m1860 0 c-8 -5 -19 -10 -25 -10 -5 0 -3 5 5 10 8 5 20 10 25 10 6 0 3 -5
-5 -10z m-1765 -36 c24 -11 25 -13 5 -8 -14 4 -38 13 -55 20 -24 11 -25 13 -5
8 14 -4 39 -13 55 -20z m1725 22 c0 -6 -93 -37 -97 -32 -2 2 15 11 39 19 47
17 58 19 58 13z m-1600 -61 c41 -14 60 -22 41 -19 -38 7 -142 42 -126 43 6 0
44 -10 85 -24z m1444 5 c-28 -10 -66 -20 -85 -24 -19 -3 -2 5 36 18 39 13 77
24 85 24 8 0 -8 -8 -36 -18z m-1337 -36 c-3 -3 -12 -4 -19 -1 -8 3 -5 6 6 6
11 1 17 -2 13 -5z m1210 0 c-3 -3 -12 -4 -19 -1 -8 3 -5 6 6 6 11 1 17 -2 13
-5z m-1137 -14 c20 -6 21 -8 5 -8 -11 0 -31 4 -45 8 -20 6 -21 8 -5 8 11 0 31
-4 45 -8z m1080 0 c-14 -4 -34 -8 -45 -8 -16 0 -15 2 5 8 14 4 34 8 45 8 16 0
15 -2 -5 -8z m-1017 -17 c-7 -2 -19 -2 -25 0 -7 3 -2 5 12 5 14 0 19 -2 13 -5z
m940 0 c-7 -2 -19 -2 -25 0 -7 3 -2 5 12 5 14 0 19 -2 13 -5z m-880 -10 c-7
-2 -21 -2 -30 0 -10 3 -4 5 12 5 17 0 24 -2 18 -5z m830 0 c-7 -2 -21 -2 -30
0 -10 3 -4 5 12 5 17 0 24 -2 18 -5z m-765 -10 c-10 -2 -26 -2 -35 0 -10 3 -2
5 17 5 19 0 27 -2 18 -5z m700 0 c-10 -2 -26 -2 -35 0 -10 3 -2 5 17 5 19 0
27 -2 18 -5z m-605 -10 c-13 -2 -35 -2 -50 0 -16 2 -5 4 22 4 28 0 40 -2 28
-4z m530 0 c-13 -2 -35 -2 -50 0 -16 2 -5 4 22 4 28 0 40 -2 28 -4z"/>
</g>
</svg>
